<mxfile host="65bd71144e">
    <diagram id="zi3ZlqyY1rGP1QHclPoc" name="PÃ¡gina-1">
        <mxGraphModel dx="659" dy="411" grid="1" gridSize="10" guides="1" tooltips="1" connect="1" arrows="1" fold="1" page="1" pageScale="1" pageWidth="827" pageHeight="1169" math="0" shadow="0">
            <root>
                <mxCell id="0"/>
                <mxCell id="1" parent="0"/>
                <mxCell id="2" value="&lt;font color=&quot;#000000&quot; style=&quot;font-size: 18px;&quot;&gt;inicio&lt;/font&gt;" style="ellipse;whiteSpace=wrap;html=1;fillColor=#60a917;fontColor=#ffffff;strokeColor=#2D7600;gradientColor=default;" vertex="1" parent="1">
                    <mxGeometry x="260" y="40" width="120" height="80" as="geometry"/>
                </mxCell>
                <mxCell id="3" value="" style="endArrow=classic;html=1;fontSize=18;fontColor=#000000;exitX=0.5;exitY=1;exitDx=0;exitDy=0;" edge="1" parent="1" source="2">
                    <mxGeometry width="50" height="50" relative="1" as="geometry">
                        <mxPoint x="320" y="240" as="sourcePoint"/>
                        <mxPoint x="320" y="160" as="targetPoint"/>
                    </mxGeometry>
                </mxCell>
                <mxCell id="4" value="&lt;div style=&quot;text-align: left;&quot;&gt;&lt;font color=&quot;#000000&quot; size=&quot;3&quot;&gt;c&lt;/font&gt;&lt;/div&gt;" style="shape=parallelogram;perimeter=parallelogramPerimeter;whiteSpace=wrap;html=1;fixedSize=1;labelBackgroundColor=#66FF66;fontSize=18;fontColor=#ffffff;fillColor=#1ba1e2;strokeColor=#006EAF;gradientColor=default;" vertex="1" parent="1">
                    <mxGeometry x="260" y="160" width="120" height="60" as="geometry"/>
                </mxCell>
                <mxCell id="5" value="" style="endArrow=classic;html=1;fontSize=18;fontColor=#000000;exitX=0.5;exitY=1;exitDx=0;exitDy=0;" edge="1" parent="1" source="4">
                    <mxGeometry width="50" height="50" relative="1" as="geometry">
                        <mxPoint x="320" y="240" as="sourcePoint"/>
                        <mxPoint x="320" y="280" as="targetPoint"/>
                    </mxGeometry>
                </mxCell>
                <mxCell id="6" value="&lt;font color=&quot;#000000&quot;&gt;F=1.8c +32&lt;br&gt;K=c + 273.15&lt;br&gt;&lt;/font&gt;" style="rounded=0;whiteSpace=wrap;html=1;labelBackgroundColor=#66FF66;fontSize=18;fontColor=#ffffff;fillColor=#d80073;strokeColor=#A50040;gradientColor=default;" vertex="1" parent="1">
                    <mxGeometry x="260" y="280" width="120" height="60" as="geometry"/>
                </mxCell>
                <mxCell id="7" value="" style="endArrow=classic;html=1;fontSize=18;fontColor=#000000;exitX=0.5;exitY=1;exitDx=0;exitDy=0;" edge="1" parent="1" source="6">
                    <mxGeometry width="50" height="50" relative="1" as="geometry">
                        <mxPoint x="320" y="500" as="sourcePoint"/>
                        <mxPoint x="320" y="400" as="targetPoint"/>
                    </mxGeometry>
                </mxCell>
                <mxCell id="8" value="&lt;font color=&quot;#000000&quot;&gt;K&lt;br&gt;F&lt;br&gt;&lt;/font&gt;" style="shape=document;whiteSpace=wrap;html=1;boundedLbl=1;labelBackgroundColor=#66FF66;fontSize=18;fontColor=#ffffff;fillColor=#a20025;strokeColor=#6F0000;gradientColor=default;" vertex="1" parent="1">
                    <mxGeometry x="260" y="400" width="120" height="80" as="geometry"/>
                </mxCell>
                <mxCell id="9" value="" style="endArrow=classic;html=1;fontSize=18;fontColor=#000000;" edge="1" parent="1" source="8">
                    <mxGeometry width="50" height="50" relative="1" as="geometry">
                        <mxPoint x="330" y="490" as="sourcePoint"/>
                        <mxPoint x="320" y="520" as="targetPoint"/>
                        <Array as="points">
                            <mxPoint x="320" y="500"/>
                        </Array>
                    </mxGeometry>
                </mxCell>
                <mxCell id="10" value="&lt;font color=&quot;#000000&quot;&gt;fin&lt;br&gt;&lt;/font&gt;" style="ellipse;whiteSpace=wrap;html=1;labelBackgroundColor=#66FF66;fontSize=18;fontColor=#ffffff;fillColor=#60a917;strokeColor=#2D7600;gradientColor=default;" vertex="1" parent="1">
                    <mxGeometry x="260" y="520" width="120" height="80" as="geometry"/>
                </mxCell>
            </root>
        </mxGraphModel>
    </diagram>
</mxfile>